<?xml version="1.0" standalone="no"?>
<!DOCTYPE svg PUBLIC "-//W3C//DTD SVG 20010904//EN"
 "http://www.w3.org/TR/2001/REC-SVG-20010904/DTD/svg10.dtd">
<svg version="1.0" xmlns="http://www.w3.org/2000/svg"
 width="16.000000pt" height="16.000000pt" viewBox="0 0 16.000000 16.000000"
 preserveAspectRatio="xMidYMid meet">
<g transform="translate(0.000000,16.000000) scale(0.100000,-0.100000)"
fill="#006400" stroke="none">
<path d="M25 135 c-30 -30 -32 -67 -4 -106 16 -23 28 -29 59 -29 31 0 43 6 59
29 12 16 21 41 21 55 0 37 -41 76 -80 76 -19 0 -40 -9 -55 -25z m96 5 c28 -16
23 -32 -6 -18 -14 6 -25 15 -25 20 0 11 7 10 31 -2z m-81 -15 c-7 -9 -15 -13
-17 -11 -7 7 7 26 19 26 6 0 6 -6 -2 -15z m55 -30 c0 -22 -31 -33 -47 -17 -17
17 -1 44 24 40 15 -2 23 -10 23 -23z m51 -6 c10 -17 -13 -36 -27 -22 -12 12
-4 33 11 33 5 0 12 -5 16 -11z m-124 -31 c-9 -9 -12 -7 -12 12 0 19 3 21 12
12 9 -9 9 -15 0 -24z m39 -20 c0 -10 2 -10 6 0 2 6 11 12 19 12 8 0 14 -6 14
-12 0 -10 3 -9 9 1 6 9 11 10 15 2 12 -19 -4 -31 -44 -31 -39 0 -56 12 -45 30
9 14 25 12 26 -2z"/>
</g>
</svg>
 10 15 2 12 -19 -4 -31 -44 -31 -39 0 -56 12 -45 30
9 14 25 12 26 -2z"/>
</g>
</svg>
